<?xml version="1.0" standalone="no"?>
<!DOCTYPE svg PUBLIC "-//W3C//DTD SVG 20010904//EN"
 "http://www.w3.org/TR/2001/REC-SVG-20010904/DTD/svg10.dtd">
<svg version="1.0" xmlns="http://www.w3.org/2000/svg"
 width="500.000000pt" height="500.000000pt" viewBox="0 0 500.000000 500.000000"
 preserveAspectRatio="xMidYMid meet">

<g transform="translate(0.000000,500.000000) scale(0.100000,-0.100000)"
fill="#000000" stroke="none">
<path d="M2195 4269 c-27 -10 -156 -55 -285 -99 -408 -139 -340 -99 -640 -384
-143 -137 -259 -250 -257 -253 3 -2 51 25 108 60 90 56 222 135 861 521 177
107 284 176 273 175 -5 0 -32 -9 -60 -20z"/>
<path d="M2555 3980 c-148 -148 -253 -260 -243 -260 9 0 54 11 100 25 180 55
220 66 403 121 383 113 435 129 438 138 1 5 -14 17 -33 28 -74 40 -397 208
-401 208 -2 0 -121 -117 -264 -260z"/>
<path d="M3380 3784 c-41 -7 -178 -29 -305 -49 -419 -66 -516 -83 -538 -98
-12 -7 -103 -58 -202 -112 -99 -53 -227 -123 -285 -155 -58 -32 -231 -126
-385 -210 -154 -84 -302 -165 -330 -180 -27 -15 -108 -59 -180 -98 -71 -38
-159 -86 -193 -106 -35 -20 -66 -36 -68 -36 -10 0 -204 -113 -205 -118 0 -4
-11 -79 -23 -167 -13 -88 -22 -161 -21 -163 3 -4 342 135 462 189 23 11 44 19
47 19 5 0 81 32 362 151 l71 30 98 145 c54 79 99 144 100 144 1 0 54 -25 118
-55 63 -30 120 -55 126 -55 14 0 113 47 421 198 146 71 408 200 584 286 175
86 325 156 334 156 13 0 134 -68 302 -170 25 -15 116 -69 202 -119 l157 -92
-6 -37 c-3 -20 -11 -66 -17 -101 l-11 -64 -174 184 c-96 101 -191 201 -211
222 l-37 39 -109 -26 c-60 -14 -172 -39 -249 -56 -191 -41 -185 -39 -185 -48
0 -7 47 -27 345 -147 l150 -61 50 -94 c81 -153 196 -369 241 -455 23 -44 47
-81 53 -83 16 -5 442 180 448 195 5 13 -48 189 -159 528 -27 83 -64 200 -84
261 l-34 112 -143 83 c-78 45 -198 116 -267 156 -73 42 -136 72 -150 72 -14
-1 -59 -8 -100 -15z"/>
<path d="M1374 3495 l-551 -274 -62 -176 c-35 -97 -61 -179 -58 -181 3 -3 263
124 578 281 l574 286 103 110 103 110 -53 59 c-29 33 -59 60 -68 59 -8 0 -263
-124 -566 -274z"/>
<path d="M2780 2851 c-36 -15 -139 -58 -230 -96 -91 -37 -192 -79 -225 -92
-33 -14 -80 -33 -105 -42 -25 -10 -94 -38 -155 -64 -178 -74 -351 -145 -494
-203 -74 -30 -149 -61 -165 -69 -17 -8 -76 -32 -131 -54 -56 -21 -157 -62
-225 -91 -69 -28 -174 -72 -235 -97 -60 -25 -111 -47 -113 -48 -1 -1 23 -66
54 -144 l57 -141 46 0 c25 0 84 4 130 10 46 5 87 7 92 4 4 -2 -28 -54 -71
-115 -44 -60 -80 -113 -80 -117 0 -11 245 -252 256 -252 14 0 655 297 666 308
8 8 -4 108 -57 472 -21 143 -27 131 67 163 45 16 148 53 228 82 555 207 719
265 733 260 7 -2 89 -16 182 -29 257 -39 422 -65 450 -72 34 -8 32 6 -8 64
-18 26 -68 98 -111 159 -42 62 -82 115 -87 119 -6 3 -32 12 -57 19 -26 7 -108
32 -182 54 -74 22 -142 40 -150 40 -8 0 -44 -13 -80 -28z"/>
<path d="M4076 2320 c-116 -50 -213 -93 -216 -97 -4 -5 -27 -46 -52 -93 -25
-47 -110 -200 -188 -340 -79 -140 -163 -292 -188 -336 l-44 -82 -202 -65
c-110 -36 -322 -104 -471 -152 -148 -48 -353 -114 -455 -147 -102 -33 -228
-73 -280 -90 -52 -17 -98 -34 -103 -37 -4 -4 35 -17 85 -29 183 -42 624 -141
660 -147 36 -7 159 25 408 104 30 10 151 47 268 82 l214 64 305 323 306 324
32 131 c18 73 60 247 94 387 34 140 64 263 67 273 9 29 -21 20 -240 -73z"/>
<path d="M2170 2164 c-79 -30 -145 -56 -147 -57 -1 -2 7 -37 19 -80 l21 -76
111 -81 c61 -44 154 -111 206 -150 139 -103 289 -213 309 -227 13 -10 36 -7
121 17 58 17 137 39 175 49 39 11 115 32 169 47 81 23 102 32 113 53 158 287
233 435 224 440 -6 4 -99 12 -207 19 -171 11 -199 11 -218 -2 -11 -8 -86 -74
-165 -145 -80 -72 -150 -131 -155 -131 -6 0 -101 86 -210 190 -109 105 -204
190 -210 189 -6 0 -76 -25 -156 -55z"/>
<path d="M1935 1298 c-77 -44 -167 -95 -200 -113 -33 -18 -96 -54 -140 -80
l-80 -47 60 6 c76 8 566 94 573 101 14 14 -44 215 -61 214 -7 0 -75 -37 -152
-81z"/>
</g>
</svg>
