<?xml version="1.0" encoding="UTF-8"?>
<!DOCTYPE svg PUBLIC "-//W3C//DTD SVG 1.1//EN" "http://www.w3.org/Graphics/SVG/1.1/DTD/svg11.dtd">
<svg xmlns="http://www.w3.org/2000/svg" version="1.1" width="500px" height="500px" style="shape-rendering:geometricPrecision; text-rendering:geometricPrecision; image-rendering:optimizeQuality; fill-rule:evenodd; clip-rule:evenodd" xmlns:xlink="http://www.w3.org/1999/xlink">
<g><path style="opacity:1" fill="#fefefe" d="M -0.5,-0.5 C 166.167,-0.5 332.833,-0.5 499.5,-0.5C 499.5,166.167 499.5,332.833 499.5,499.5C 332.833,499.5 166.167,499.5 -0.5,499.5C -0.5,332.833 -0.5,166.167 -0.5,-0.5 Z"/></g>
<g><path style="opacity:1" fill="#151a1f" d="M 114.5,186.5 C 120.229,189.026 125.896,191.859 131.5,195C 121.829,198.002 112.162,201.002 102.5,204C 101.056,204.781 99.723,204.614 98.5,203.5C 104.581,198.422 109.915,192.756 114.5,186.5 Z"/></g>
<g><path style="opacity:1" fill="#1d2227" d="M 60.5,205.5 C 60.0618,205.565 59.7284,205.399 59.5,205C 62.0386,202.63 64.3719,200.13 66.5,197.5C 67.6728,195.496 69.3395,193.996 71.5,193C 78.3002,189.951 85.3002,187.951 92.5,187C 81.9419,193.443 71.2753,199.609 60.5,205.5 Z"/></g>
<g><path style="opacity:1" fill="#14191d" d="M 163.5,225.5 C 163.723,229.162 164.723,232.495 166.5,235.5C 168.368,238.937 169.534,242.604 170,246.5C 164.909,248.626 159.742,250.626 154.5,252.5C 153.833,252.167 153.167,251.833 152.5,251.5C 149.255,244.676 145.755,238.009 142,231.5C 136.38,228.629 130.547,226.129 124.5,224C 123.288,222.893 123.621,222.393 125.5,222.5C 128.152,222.59 130.485,221.924 132.5,220.5C 136.099,219.36 139.766,218.86 143.5,219C 148.376,223.708 153.043,228.541 157.5,233.5C 159.52,231.401 159.854,229.067 158.5,226.5C 150.847,221.759 143.014,217.426 135,213.5C 119.785,220.524 104.619,227.69 89.5,235C 85.5028,236.099 82.0028,235.265 79,232.5C 75.8335,235.628 73.0002,239.128 70.5,243C 59.6978,247.236 49.0312,251.736 38.5,256.5C 37.2249,252.202 37.5582,248.035 39.5,244C 61.3315,231.917 83.3315,220.083 105.5,208.5C 108.152,208.59 110.485,207.924 112.5,206.5C 122.162,204.998 131.828,203.832 141.5,203C 147.751,206.708 153.917,210.541 160,214.5C 161.674,218.021 162.84,221.687 163.5,225.5 Z"/></g>
<g><path style="opacity:1" fill="#42464a" d="M 66.5,197.5 C 64.3719,200.13 62.0386,202.63 59.5,205C 59.7284,205.399 60.0618,205.565 60.5,205.5C 57.312,207.69 54.1454,210.024 51,212.5C 50.3333,211.833 50.3333,211.167 51,210.5C 56.059,205.933 61.2257,201.599 66.5,197.5 Z"/></g>
<g><path style="opacity:1" fill="#171c20" d="M 82.5,203.5 C 85.1141,203.852 86.7808,205.352 87.5,208C 85.8878,210.616 83.8878,212.95 81.5,215C 67.9999,222.115 54.3332,228.948 40.5,235.5C 40.2681,230.893 41.6014,226.56 44.5,222.5C 57.2706,216.147 69.9373,209.814 82.5,203.5 Z"/></g>
<g><path style="opacity:1" fill="#5a5e62" d="M 112.5,206.5 C 110.485,207.924 108.152,208.59 105.5,208.5C 107.515,207.076 109.848,206.41 112.5,206.5 Z"/></g>
<g><path style="opacity:1" fill="#5d6165" d="M 132.5,220.5 C 130.485,221.924 128.152,222.59 125.5,222.5C 127.515,221.076 129.848,220.41 132.5,220.5 Z"/></g>
<g><path style="opacity:1" fill="#12181a" d="M 206.5,244.5 C 211.833,244.5 217.167,244.5 222.5,244.5C 222.5,250.5 222.5,256.5 222.5,262.5C 211.532,269.859 201.365,268.859 192,259.5C 184.029,244.419 187.529,232.919 202.5,225C 209.468,223.538 215.801,224.871 221.5,229C 219.641,230.558 218.141,232.391 217,234.5C 207.827,229.091 200.827,231.091 196,240.5C 194.058,254.221 199.891,260.388 213.5,259C 215.321,256.544 215.988,253.711 215.5,250.5C 212.5,250.5 209.5,250.5 206.5,250.5C 206.5,248.5 206.5,246.5 206.5,244.5 Z"/></g>
<g><path style="opacity:1" fill="#12181a" d="M 443.5,225.5 C 445.833,225.5 448.167,225.5 450.5,225.5C 450.5,227.5 450.5,229.5 450.5,231.5C 448.167,231.5 445.833,231.5 443.5,231.5C 443.5,229.5 443.5,227.5 443.5,225.5 Z"/></g>
<g><path style="opacity:1" fill="#101618" d="M 229.5,225.5 C 232.119,225.232 234.619,225.565 237,226.5C 240,231.833 243,237.167 246,242.5C 249.088,237.325 251.921,231.992 254.5,226.5C 257.106,225.348 259.773,225.182 262.5,226C 258.333,233.5 254.167,241 250,248.5C 249.501,254.491 249.334,260.491 249.5,266.5C 247.167,266.5 244.833,266.5 242.5,266.5C 242.334,260.491 242.501,254.491 243,248.5C 243.635,247.034 244.469,245.7 245.5,244.5C 242.973,243.786 240.473,243.12 238,242.5C 234.906,236.922 232.072,231.256 229.5,225.5 Z"/></g>
<g><path style="opacity:1" fill="#121719" d="M 270.5,258.5 C 270.167,258.5 269.833,258.5 269.5,258.5C 269.5,247.5 269.5,236.5 269.5,225.5C 271.833,225.5 274.167,225.5 276.5,225.5C 276.666,234.839 276.5,244.173 276,253.5C 274.296,255.373 272.463,257.04 270.5,258.5 Z"/></g>
<g><path style="opacity:1" fill="#111719" d="M 293.5,225.5 C 296.119,225.232 298.619,225.565 301,226.5C 303.493,232.157 306.493,237.49 310,242.5C 312.579,237.008 315.412,231.675 318.5,226.5C 321.106,225.348 323.773,225.182 326.5,226C 322.207,233.419 318.04,240.919 314,248.5C 313.501,254.491 313.334,260.491 313.5,266.5C 311.167,266.5 308.833,266.5 306.5,266.5C 306.334,260.158 306.5,253.825 307,247.5C 307.956,246.421 308.789,245.255 309.5,244C 306.905,243.774 304.405,243.274 302,242.5C 298.628,237.09 295.795,231.423 293.5,225.5 Z"/></g>
<g><path style="opacity:1" fill="#101618" d="M 332.5,226.5 C 335.024,225.2 337.691,225.2 340.5,226.5C 345.262,235.696 350.262,244.696 355.5,253.5C 360.842,244.818 365.675,235.818 370,226.5C 371.011,225.663 372.178,225.33 373.5,225.5C 375.392,239.185 377.392,252.851 379.5,266.5C 377.167,266.5 374.833,266.5 372.5,266.5C 371.353,258.81 370.02,251.143 368.5,243.5C 364.408,251.355 360.075,259.022 355.5,266.5C 350.511,259.198 346.011,251.531 342,243.5C 340.415,251.097 339.248,258.764 338.5,266.5C 336.167,266.5 333.833,266.5 331.5,266.5C 332.245,258.116 333.412,249.783 335,241.5C 336.204,240.141 337.704,239.141 339.5,238.5C 337.645,234.109 335.311,230.109 332.5,226.5 Z"/></g>
<g><path style="opacity:1" fill="#101618" d="M 411.5,226.5 C 414.024,225.2 416.691,225.2 419.5,226.5C 425.226,239.62 431.226,252.62 437.5,265.5C 432.386,267.804 429.052,266.304 427.5,261C 420.808,260.169 414.142,260.336 407.5,261.5C 406.293,266.417 403.293,267.75 398.5,265.5C 402.667,256.5 406.833,247.5 411,238.5C 412.825,237.897 414.659,237.23 416.5,236.5C 415.33,232.827 413.663,229.493 411.5,226.5 Z"/></g>
<g><path style="opacity:1" fill="#585c60" d="M 163.5,225.5 C 165.277,228.505 166.277,231.838 166.5,235.5C 164.723,232.495 163.723,229.162 163.5,225.5 Z"/></g>
<g><path style="opacity:1" fill="#151a1c" d="M 449.5,232.5 C 450.495,243.654 450.828,254.988 450.5,266.5C 448.167,266.5 445.833,266.5 443.5,266.5C 443.334,256.828 443.5,247.161 444,237.5C 445.812,235.7 447.645,234.033 449.5,232.5 Z"/></g>
<g><path style="opacity:1" fill="#13181c" d="M 78.5,266.5 C 79.7993,272.539 80.1327,278.539 79.5,284.5C 72.2841,287.106 65.2841,290.273 58.5,294C 57.5,294.667 56.5,294.667 55.5,294C 52.6503,291.318 49.9836,288.484 47.5,285.5C 48.9213,282.991 50.5879,280.657 52.5,278.5C 49.5535,277.679 46.5535,277.179 43.5,277C 41.6704,273.676 40.3371,270.176 39.5,266.5C 65.4332,256.207 91.4332,245.874 117.5,235.5C 122.063,237.299 126.73,238.799 131.5,240C 134.502,243.517 136.835,247.35 138.5,251.5C 129.838,250.332 121.171,249.499 112.5,249C 101.329,252.71 90.3289,256.876 79.5,261.5C 78.5481,263.045 78.2148,264.712 78.5,266.5 Z"/></g>
<g><path style="opacity:1" fill="#eaeaeb" d="M 417.5,239.5 C 419.814,244.063 422.147,248.729 424.5,253.5C 420.167,254.833 415.833,254.833 411.5,253.5C 413.512,248.812 415.512,244.145 417.5,239.5 Z"/></g>
<g><path style="opacity:1" fill="#6f7476" d="M 206.5,244.5 C 211.975,243.511 217.642,243.178 223.5,243.5C 223.823,250.022 223.49,256.355 222.5,262.5C 222.5,256.5 222.5,250.5 222.5,244.5C 217.167,244.5 211.833,244.5 206.5,244.5 Z"/></g>
<g><path style="opacity:1" fill="#14191d" d="M 129.5,308.5 C 126.848,308.41 124.515,309.076 122.5,310.5C 118.076,311.807 113.576,312.807 109,313.5C 99.7267,312.224 90.56,310.39 81.5,308C 99.805,301.676 118.138,295.342 136.5,289C 141.887,279.054 147.387,269.221 153,259.5C 157.94,256.686 163.106,254.352 168.5,252.5C 168.833,253.167 169.167,253.833 169.5,254.5C 166.636,263.316 164.47,272.316 163,281.5C 155.469,288.697 148.302,296.197 141.5,304C 137.429,305.63 133.429,307.13 129.5,308.5 Z"/></g>
<g><path style="opacity:1" fill="#777c7d" d="M 269.5,258.5 C 269.833,258.5 270.167,258.5 270.5,258.5C 278.833,259.167 287.167,259.833 295.5,260.5C 286.833,260.5 278.167,260.5 269.5,260.5C 269.5,259.833 269.5,259.167 269.5,258.5 Z"/></g>
<g><path style="opacity:1" fill="#0d1316" d="M 269.5,260.5 C 278.167,260.5 286.833,260.5 295.5,260.5C 295.5,262.5 295.5,264.5 295.5,266.5C 286.833,266.5 278.167,266.5 269.5,266.5C 269.5,264.5 269.5,262.5 269.5,260.5 Z"/></g>
<g><path style="opacity:1" fill="#212629" d="M 388.5,258.5 C 393.328,259.641 394.328,262.141 391.5,266C 387,266.833 385.167,265 386,260.5C 386.995,259.934 387.828,259.267 388.5,258.5 Z"/></g>
<g><path style="opacity:1" fill="#14191d" d="M 124.5,263.5 C 129.944,262.892 134.944,263.558 139.5,265.5C 136.763,270.638 133.763,275.638 130.5,280.5C 124.437,281.913 118.437,283.58 112.5,285.5C 104.448,280.956 96.7815,275.789 89.5,270C 87.3813,267.782 87.048,265.282 88.5,262.5C 91.5539,261.653 94.5539,260.653 97.5,259.5C 102.799,263.629 107.966,267.962 113,272.5C 116.755,269.376 120.589,266.376 124.5,263.5 Z"/></g>
<g><path style="opacity:1" fill="#9c9ea0" d="M 124.5,263.5 C 129.64,262.512 134.974,262.179 140.5,262.5C 140.737,263.791 140.404,264.791 139.5,265.5C 134.944,263.558 129.944,262.892 124.5,263.5 Z"/></g>
<g><path style="opacity:1" fill="#aaacae" d="M 78.5,266.5 C 80.2294,270.873 81.2294,275.54 81.5,280.5C 81.4146,282.333 80.7479,283.666 79.5,284.5C 80.1327,278.539 79.7993,272.539 78.5,266.5 Z"/></g>
<g><path style="opacity:1" fill="#1f2428" d="M 87.5,289.5 C 88.5,289.5 89.5,289.5 90.5,289.5C 90.5751,292.206 90.9084,294.873 91.5,297.5C 84.0964,298.617 76.763,299.783 69.5,301C 75.7341,297.392 81.7341,293.559 87.5,289.5 Z"/></g>
<g><path style="opacity:1" fill="#a6a8aa" d="M 129.5,308.5 C 127.485,309.924 125.152,310.59 122.5,310.5C 124.515,309.076 126.848,308.41 129.5,308.5 Z"/></g>
</svg>
